<svg width="140" height="29" viewBox="0 0 140 29" fill="none" xmlns="http://www.w3.org/2000/svg">
<path d="M134.652 3.35415C131.578 2.82492 128.699 3.01543 125.83 2.93075C120.709 2.77728 115.589 2.84609 110.479 3.02603C102.015 3.32769 93.567 3.87808 85.1294 4.61371C77.8362 5.24878 70.5431 5.91561 63.2762 6.77296C54.96 7.75203 46.649 8.82106 38.3591 10.0065C28.5505 11.409 18.7419 12.8167 8.98597 14.5473C6.30178 15.0236 3.60177 15.4205 0.991409 16.2514C0.711915 16.3414 0.379689 16.6218 0 16.1455C0.458791 15.447 1.22344 15.1824 1.95645 14.8966C6.35979 13.1872 10.9899 12.3775 15.5989 11.5307C30.7654 8.74697 45.9951 6.3284 61.2881 4.37555C72.3518 2.96251 83.4419 1.80351 94.5795 1.06788C100.407 0.68684 106.239 0.411636 112.072 0.168192C116.29 -0.00645295 120.499 -0.0382014 124.712 0.0411826C128.583 0.109982 132.469 0.189362 136.308 0.813849C136.968 0.919694 137.632 1.052 138.27 1.24252C139.182 1.51772 139.979 1.96757 140 3.08424C140.016 4.14269 139.246 4.59254 138.423 4.91007C136.852 5.51339 135.196 5.82561 133.54 6.07964C127.101 7.064 120.625 7.6885 114.133 8.17009C105.163 8.83692 96.1984 9.49318 87.223 10.1124C82.3081 10.4564 77.3827 10.6839 72.4679 11.0332C61.4938 11.8112 50.5039 12.478 39.6142 14.1715C39.4349 14.198 39.2609 14.2298 39.1027 14.4785C44.8402 14.2986 50.5777 14.1027 56.3153 13.944C61.2459 13.8064 66.1819 13.7534 71.1126 13.9704C74.2661 14.108 77.4249 14.235 80.5784 14.4309C82.8249 14.5685 85.0662 14.7802 87.2705 15.2723C88.0087 15.4364 88.7681 15.6693 89.4273 16.0344C90.7193 16.7542 90.8037 18.0243 89.6752 18.9769C88.8103 19.702 87.7398 20.0195 86.6851 20.337C81.1216 21.9988 75.4104 23.0149 69.7678 24.3274C68.5655 24.6079 67.3632 24.8884 66.1397 25.1688C66.319 25.7828 66.7198 25.5975 66.9993 25.6081C73.6966 25.8357 80.3991 25.9839 87.0964 26.2749C93.6935 26.5607 100.285 26.9841 106.877 27.3546C107.162 27.3704 107.447 27.4339 107.716 27.5186C107.932 27.5874 108.19 27.6721 108.201 27.9685C108.211 28.2754 107.953 28.3707 107.731 28.4183C107.31 28.503 106.882 28.5718 106.455 28.593C96.1141 29.1275 85.7622 29.064 75.421 28.8099C71.0757 28.7041 66.704 28.8629 62.3639 28.3601C61.4569 28.2543 60.5499 28.2172 59.6797 27.9261C58.9151 27.6721 58.277 27.2381 58.1821 26.3596C58.0766 25.4282 58.567 24.7878 59.3581 24.3909C61.652 23.2372 64.1622 22.7503 66.6301 22.1893C72.3729 20.8715 78.1368 19.6596 83.8954 18.3948C84.5915 18.2413 85.2718 18.0243 86.2158 17.765C85.0292 17.2093 83.9745 17.2305 82.999 17.1722C73.7651 16.6324 64.526 16.5848 55.2869 17.0346C55.1446 17.0399 55.0022 17.0505 54.8545 17.0558C49.6865 17.1564 44.5133 17.2887 39.3453 17.3363C37.4837 17.3522 35.6117 17.2358 33.7607 17.0241C32.5689 16.8865 31.0079 16.86 30.8339 15.2511C30.6493 13.5629 32.1628 13.1872 33.3915 12.8326C38.2009 11.446 43.158 10.8956 48.1098 10.3823C57.7285 9.38202 67.379 8.77871 77.0347 8.27065C83.2943 7.94253 89.5539 7.56678 95.8082 7.14339C108.222 6.29663 120.657 5.64569 132.97 3.69814C133.471 3.61876 133.972 3.49703 134.679 3.34885L134.652 3.35415Z" fill="#1FA84F"/>
</svg>
