<svg width="157" height="47" viewBox="0 0 157 47" fill="none" xmlns="http://www.w3.org/2000/svg">
<path d="M156.128 41.5797C156.128 44.0844 154.129 46.1132 151.657 46.1132H5.34884C2.8779 46.1132 0.872223 44.0844 0.872223 41.5797V5.42623C0.872223 2.92273 2.8779 0.88678 5.34884 0.88678H151.656C154.129 0.88678 156.127 2.92273 156.127 5.42623L156.128 41.5797Z" fill="black"/>
<path d="M151.185 0.941471C153.877 0.941471 156.068 3.15488 156.068 5.875V41.125C156.068 43.8451 153.877 46.0585 151.185 46.0585H5.81482C3.12256 46.0585 0.931824 43.8451 0.931824 41.125V5.875C0.931824 3.15488 3.12256 0.941471 5.81482 0.941471H151.185ZM151.185 3.8147e-06H5.81482C2.61812 3.8147e-06 0 2.64522 0 5.875V41.125C0 44.3548 2.61812 47 5.81482 47H151.185C154.382 47 157 44.3548 157 41.125V5.875C157 2.64522 154.382 3.8147e-06 151.185 3.8147e-06Z" fill="#A6A6A6"/>
<path d="M35.0378 23.2462C35.004 19.4592 38.1068 17.6168 38.2487 17.531C36.4915 14.9425 33.7678 14.5888 32.8107 14.5606C30.5231 14.3174 28.3042 15.9436 27.1389 15.9436C25.9504 15.9436 24.1559 14.5841 22.2219 14.6241C19.7332 14.6628 17.4049 16.1187 16.128 18.3794C13.4927 22.9889 15.4581 29.7628 17.9829 33.4887C19.2459 35.3135 20.7217 37.3509 22.6534 37.2792C24.5432 37.2005 25.2491 36.0619 27.5297 36.0619C29.7893 36.0619 30.4522 37.2792 32.4222 37.2334C34.4505 37.2005 35.7274 35.4004 36.9462 33.5592C38.4057 31.4677 38.9918 29.4079 39.0151 29.3022C38.9674 29.2857 35.0761 27.7852 35.0378 23.2462Z" fill="white"/>
<path d="M31.3163 12.1096C32.3327 10.8253 33.0282 9.07807 32.8351 7.30499C31.364 7.37079 29.5241 8.33312 28.4647 9.58919C27.5273 10.696 26.69 12.5102 26.9063 14.2163C28.5589 14.3409 30.2556 13.3739 31.3163 12.1096Z" fill="white"/>
<path d="M57.0433 11.7606C57.0433 13.1436 56.6328 14.1846 55.8129 14.8837C55.0535 15.5288 53.9743 15.8519 52.5764 15.8519C51.8833 15.8519 51.2902 15.8214 50.7936 15.7603V8.20387C51.4413 8.09812 52.1391 8.04407 52.8927 8.04407C54.2243 8.04407 55.228 8.33664 55.9048 8.92179C56.6631 9.58332 57.0433 10.5292 57.0433 11.7606ZM55.7583 11.7947C55.7583 10.8981 55.5234 10.2108 55.0535 9.73137C54.5837 9.25314 53.8975 9.01344 52.9939 9.01344C52.6101 9.01344 52.2833 9.03929 52.0124 9.09334V14.8379C52.1624 14.8614 52.4368 14.872 52.8357 14.872C53.7684 14.872 54.4883 14.61 54.9954 14.0859C55.5024 13.5619 55.7583 12.7981 55.7583 11.7947Z" fill="white"/>
<path d="M63.8572 12.9685C63.8572 13.8203 63.6164 14.5183 63.1349 15.0658C62.6302 15.6287 61.9615 15.9095 61.1265 15.9095C60.3217 15.9095 59.6809 15.6404 59.203 15.0999C58.7262 14.5606 58.4877 13.8803 58.4877 13.0601C58.4877 12.2024 58.7331 11.4985 59.2262 10.9522C59.7193 10.4058 60.3822 10.132 61.2172 10.132C62.022 10.132 62.6686 10.4011 63.1582 10.9404C63.6234 11.4645 63.8572 12.1413 63.8572 12.9685ZM62.593 13.0084C62.593 12.4973 62.4837 12.059 62.2662 11.6936C62.0104 11.2518 61.6464 11.0309 61.173 11.0309C60.6834 11.0309 60.3113 11.2518 60.0554 11.6936C59.8368 12.059 59.7286 12.5043 59.7286 13.0307C59.7286 13.5419 59.8379 13.9801 60.0554 14.3456C60.3194 14.7874 60.6869 15.0083 61.1614 15.0083C61.6266 15.0083 61.9918 14.7838 62.2546 14.3338C62.4802 13.9613 62.593 13.5195 62.593 13.0084Z" fill="white"/>
<path d="M72.9934 10.2448L71.278 15.7838H70.1616L69.451 13.3785C69.2707 12.7781 69.1242 12.1812 69.0102 11.589H68.9881C68.8823 12.1977 68.7358 12.7934 68.5474 13.3785L67.7926 15.7838H66.6634L65.0503 10.2448H66.3028L66.9227 12.878C67.0727 13.5007 67.196 14.0941 67.2949 14.6558H67.3169C67.4077 14.1928 67.5577 13.603 67.7693 12.8897L68.5474 10.246H69.5405L70.286 12.8333C70.4663 13.4643 70.6128 14.0718 70.7256 14.6569H70.7593C70.8419 14.0871 70.9663 13.4796 71.1315 12.8333L71.7967 10.246H72.9934V10.2448Z" fill="white"/>
<path d="M79.3118 15.7838H78.093V12.6113C78.093 11.6337 77.7255 11.1449 76.9882 11.1449C76.6265 11.1449 76.3346 11.2789 76.1078 11.5479C75.8834 11.817 75.7694 12.1343 75.7694 12.4973V15.7826H74.5506V11.8276C74.5506 11.3411 74.5355 10.8136 74.5064 10.2425H75.5775L75.6345 11.1085H75.6682C75.8101 10.8394 76.0217 10.6173 76.2997 10.4399C76.63 10.2331 76.9998 10.1285 77.4045 10.1285C77.9162 10.1285 78.3418 10.2954 78.6803 10.6303C79.1013 11.0403 79.3118 11.6525 79.3118 12.4656V15.7838Z" fill="white"/>
<path d="M82.6727 15.7838H81.4551V7.70331H82.6727V15.7838Z" fill="white"/>
<path d="M89.8482 12.9685C89.8482 13.8203 89.6075 14.5183 89.126 15.0658C88.6213 15.6287 87.9514 15.9095 87.1176 15.9095C86.3116 15.9095 85.6708 15.6404 85.194 15.0999C84.7172 14.5606 84.4788 13.8803 84.4788 13.0601C84.4788 12.2024 84.7242 11.4985 85.2173 10.9522C85.7104 10.4058 86.3733 10.132 87.2071 10.132C88.0131 10.132 88.6585 10.4011 89.1493 10.9404C89.6145 11.4645 89.8482 12.1413 89.8482 12.9685ZM88.5829 13.0084C88.5829 12.4973 88.4736 12.059 88.2561 11.6936C88.0014 11.2518 87.6362 11.0309 87.1641 11.0309C86.6733 11.0309 86.3012 11.2518 86.0465 11.6936C85.8278 12.059 85.7197 12.5043 85.7197 13.0307C85.7197 13.5419 85.829 13.9801 86.0465 14.3456C86.3105 14.7874 86.678 15.0083 87.1525 15.0083C87.6176 15.0083 87.9817 14.7838 88.2445 14.3338C88.4713 13.9613 88.5829 13.5195 88.5829 13.0084Z" fill="white"/>
<path d="M95.7468 15.7838H94.6524L94.5617 15.1457H94.528C94.1535 15.6545 93.6197 15.9095 92.9266 15.9095C92.4091 15.9095 91.9904 15.7415 91.6752 15.4078C91.3891 15.1046 91.2461 14.7274 91.2461 14.2798C91.2461 13.603 91.5252 13.0871 92.0869 12.7299C92.6475 12.3727 93.436 12.1977 94.4512 12.2059V12.1025C94.4512 11.3728 94.0721 11.0086 93.3127 11.0086C92.7719 11.0086 92.2951 11.146 91.8834 11.4186L91.6357 10.6102C92.1451 10.2918 92.7742 10.132 93.5162 10.132C94.949 10.132 95.6677 10.8958 95.6677 12.4233V14.4631C95.6677 15.0165 95.6944 15.4571 95.7468 15.7838ZM94.4814 13.8803V13.026C93.1371 13.0025 92.4649 13.375 92.4649 14.1423C92.4649 14.4313 92.5416 14.6475 92.6986 14.7921C92.8556 14.9366 93.0557 15.0083 93.2941 15.0083C93.5616 15.0083 93.8116 14.9225 94.0395 14.7521C94.2686 14.5806 94.4093 14.3632 94.4617 14.0965C94.4745 14.0365 94.4814 13.9637 94.4814 13.8803Z" fill="white"/>
<path d="M102.672 15.7838H101.591L101.534 14.8943H101.5C101.155 15.5711 100.566 15.9095 99.7392 15.9095C99.0786 15.9095 98.5286 15.6475 98.0925 15.1234C97.6563 14.5994 97.4389 13.9191 97.4389 13.0836C97.4389 12.1871 97.675 11.461 98.1494 10.9064C98.6088 10.3894 99.1717 10.1309 99.8415 10.1309C100.578 10.1309 101.093 10.3811 101.386 10.8829H101.409V7.70331H102.629V14.2915C102.629 14.8309 102.643 15.3279 102.672 15.7838ZM101.409 13.4479V12.5243C101.409 12.3645 101.398 12.2353 101.375 12.1366C101.307 11.8405 101.159 11.5914 100.935 11.3905C100.708 11.1895 100.435 11.0885 100.119 11.0885C99.6648 11.0885 99.3089 11.2706 99.0472 11.636C98.7879 12.0015 98.6565 12.4679 98.6565 13.0378C98.6565 13.5854 98.7809 14.0295 99.031 14.3714C99.295 14.7357 99.6508 14.9178 100.096 14.9178C100.496 14.9178 100.816 14.7662 101.059 14.4619C101.294 14.1811 101.409 13.8427 101.409 13.4479Z" fill="white"/>
<path d="M113.096 12.9685C113.096 13.8203 112.855 14.5183 112.374 15.0658C111.869 15.6287 111.201 15.9095 110.365 15.9095C109.562 15.9095 108.921 15.6404 108.442 15.0999C107.965 14.5606 107.726 13.8803 107.726 13.0601C107.726 12.2024 107.972 11.4985 108.465 10.9522C108.958 10.4058 109.621 10.132 110.457 10.132C111.261 10.132 111.908 10.4011 112.397 10.9404C112.862 11.4645 113.096 12.1413 113.096 12.9685ZM111.833 13.0084C111.833 12.4973 111.724 12.059 111.506 11.6936C111.249 11.2518 110.886 11.0309 110.412 11.0309C109.923 11.0309 109.551 11.2518 109.294 11.6936C109.075 12.059 108.967 12.5043 108.967 13.0307C108.967 13.5419 109.077 13.9801 109.294 14.3456C109.558 14.7874 109.926 15.0083 110.4 15.0083C110.865 15.0083 111.232 14.7838 111.494 14.3338C111.719 13.9613 111.833 13.5195 111.833 13.0084Z" fill="white"/>
<path d="M119.649 15.7838H118.432V12.6113C118.432 11.6337 118.064 11.1449 117.326 11.1449C116.964 11.1449 116.672 11.2789 116.446 11.5479C116.221 11.817 116.108 12.1343 116.108 12.4973V15.7826H114.888V11.8276C114.888 11.3411 114.874 10.8136 114.845 10.2425H115.915L115.972 11.1085H116.006C116.149 10.8394 116.36 10.6173 116.637 10.4399C116.969 10.2331 117.337 10.1285 117.743 10.1285C118.254 10.1285 118.679 10.2954 119.018 10.6303C119.44 11.0403 119.649 11.6525 119.649 12.4656V15.7838Z" fill="white"/>
<path d="M127.852 11.1672H126.509V13.858C126.509 14.5418 126.748 14.8838 127.22 14.8838C127.439 14.8838 127.62 14.865 127.763 14.8262L127.795 15.7603C127.554 15.852 127.237 15.8978 126.848 15.8978C126.366 15.8978 125.992 15.7497 125.721 15.4536C125.449 15.1575 125.314 14.6593 125.314 13.9602V11.1672H124.513V10.2449H125.314V9.22967L126.508 8.86542V10.2437H127.85V11.1672H127.852Z" fill="white"/>
<path d="M134.304 15.7838H133.084V12.6348C133.084 11.6419 132.716 11.1449 131.98 11.1449C131.415 11.1449 131.029 11.4328 130.817 12.0085C130.781 12.1295 130.76 12.2776 130.76 12.4515V15.7826H129.542V7.70331H130.76V11.0415H130.783C131.167 10.434 131.717 10.1309 132.43 10.1309C132.935 10.1309 133.352 10.2977 133.684 10.6326C134.097 11.0497 134.304 11.6701 134.304 12.4903V15.7838Z" fill="white"/>
<path d="M140.959 12.7523C140.959 12.9732 140.943 13.1588 140.914 13.3104H137.259C137.275 13.858 137.449 14.2751 137.788 14.5641C138.097 14.8226 138.496 14.9519 138.985 14.9519C139.525 14.9519 140.018 14.8649 140.463 14.6899L140.653 15.5453C140.134 15.7732 139.522 15.8872 138.814 15.8872C137.965 15.8872 137.296 15.6346 136.812 15.1293C136.326 14.6241 136.085 13.9461 136.085 13.0954C136.085 12.26 136.31 11.5644 136.762 11.0098C137.234 10.4176 137.873 10.1215 138.679 10.1215C139.467 10.1215 140.066 10.4176 140.471 11.0098C140.798 11.4798 140.959 12.0614 140.959 12.7523ZM139.796 12.4339C139.806 12.0684 139.725 11.7535 139.56 11.488C139.349 11.1461 139.026 10.9745 138.59 10.9745C138.193 10.9745 137.868 11.1414 137.62 11.4762C137.418 11.743 137.298 12.0614 137.259 12.4339H139.796Z" fill="white"/>
<path d="M62.3871 37.0172H59.7461L58.2993 32.4241H53.2707L51.8926 37.0172H49.3213L54.3034 21.3803H57.3806L62.3871 37.0172ZM57.8632 30.4971L56.5549 26.414C56.4165 25.9969 56.1572 25.0146 55.7745 23.4683H55.728C55.5757 24.1333 55.3303 25.1156 54.993 26.414L53.708 30.4971H57.8632Z" fill="white"/>
<path d="M75.1995 31.2409C75.1995 33.1585 74.6866 34.6743 73.6609 35.787C72.7422 36.7775 71.6013 37.2722 70.2395 37.2722C68.7695 37.2722 67.7135 36.7387 67.0704 35.6718H67.0239V41.6115H64.5444V29.4537C64.5444 28.2482 64.513 27.0109 64.4526 25.7419H66.6331L66.7715 27.5291H66.818C67.6449 26.1825 68.8997 25.5104 70.5837 25.5104C71.9002 25.5104 72.9992 26.0357 73.8784 27.0873C74.7599 28.1401 75.1995 29.5242 75.1995 31.2409ZM72.6735 31.3326C72.6735 30.2351 72.4293 29.3304 71.9386 28.6183C71.4024 27.8757 70.6825 27.5044 69.7801 27.5044C69.1684 27.5044 68.6125 27.7112 68.1159 28.1189C67.6181 28.5302 67.2925 29.0672 67.1402 29.7322C67.0634 30.0424 67.025 30.2962 67.025 30.496V32.376C67.025 33.1961 67.2739 33.8882 67.7717 34.4534C68.2694 35.0185 68.916 35.3005 69.7115 35.3005C70.6453 35.3005 71.3722 34.9363 71.892 34.2101C72.413 33.4828 72.6735 32.524 72.6735 31.3326Z" fill="white"/>
<path d="M88.0351 31.2409C88.0351 33.1585 87.5223 34.6743 86.4954 35.787C85.5778 36.7775 84.4369 37.2722 83.0751 37.2722C81.6051 37.2722 80.5491 36.7387 79.9072 35.6718H79.8607V41.6115H77.3812V29.4537C77.3812 28.2482 77.3498 27.0109 77.2894 25.7419H79.4699L79.6083 27.5291H79.6548C80.4805 26.1825 81.7354 25.5104 83.4205 25.5104C84.7358 25.5104 85.8348 26.0357 86.7163 27.0873C87.5944 28.1401 88.0351 29.5242 88.0351 31.2409ZM85.5092 31.3326C85.5092 30.2351 85.2638 29.3304 84.773 28.6183C84.2369 27.8757 83.5194 27.5044 82.6157 27.5044C82.0028 27.5044 81.4481 27.7112 80.9504 28.1189C80.4526 28.5302 80.1281 29.0672 79.9758 29.7322C79.9002 30.0424 79.8607 30.2962 79.8607 30.496V32.376C79.8607 33.1961 80.1095 33.8882 80.605 34.4534C81.1027 35.0174 81.7493 35.3005 82.5471 35.3005C83.481 35.3005 84.2078 34.9363 84.7277 34.2101C85.2487 33.4828 85.5092 32.524 85.5092 31.3326Z" fill="white"/>
<path d="M102.386 32.6321C102.386 33.9622 101.929 35.0444 101.011 35.8798C100.003 36.7928 98.5995 37.2487 96.7957 37.2487C95.1304 37.2487 93.7953 36.9244 92.7847 36.2746L93.3592 34.1866C94.4477 34.8517 95.6421 35.1854 96.9434 35.1854C97.8773 35.1854 98.6041 34.9715 99.1263 34.5462C99.6462 34.1208 99.9055 33.5498 99.9055 32.8377C99.9055 32.2032 99.6915 31.6686 99.2624 31.235C98.8356 30.8015 98.1227 30.3984 97.1272 30.026C94.4175 29.0049 93.0638 27.5091 93.0638 25.5422C93.0638 24.2567 93.5383 23.2027 94.4884 22.3826C95.4351 21.5613 96.698 21.1512 98.2773 21.1512C99.6857 21.1512 100.856 21.3991 101.789 21.8938L101.17 23.9359C100.297 23.4565 99.3112 23.2168 98.2076 23.2168C97.3353 23.2168 96.6539 23.4342 96.1654 23.8666C95.7526 24.2532 95.5455 24.7244 95.5455 25.2825C95.5455 25.9005 95.7816 26.4117 96.2561 26.8135C96.669 27.1848 97.4191 27.5867 98.5076 28.0202C99.8392 28.5619 100.817 29.1952 101.446 29.9214C102.073 30.6452 102.386 31.5511 102.386 32.6321Z" fill="white"/>
<path d="M110.584 27.6219H107.851V33.0962C107.851 34.4886 108.332 35.1842 109.298 35.1842C109.741 35.1842 110.108 35.1454 110.399 35.0679L110.468 36.9702C109.979 37.1547 109.336 37.2475 108.539 37.2475C107.56 37.2475 106.795 36.9455 106.242 36.3428C105.692 35.7388 105.416 34.726 105.416 33.303V27.6196H103.787V25.7396H105.416V23.6751L107.851 22.9325V25.7396H110.584V27.6219Z" fill="white"/>
<path d="M122.915 31.2867C122.915 33.0198 122.424 34.4428 121.445 35.5555C120.418 36.7011 119.055 37.2722 117.356 37.2722C115.718 37.2722 114.415 36.7234 113.442 35.626C112.47 34.5285 111.984 33.1432 111.984 31.4735C111.984 29.7263 112.484 28.2952 113.488 27.1824C114.489 26.0685 115.84 25.5116 117.539 25.5116C119.177 25.5116 120.495 26.0603 121.489 27.1589C122.44 28.2247 122.915 29.6006 122.915 31.2867ZM120.342 31.3678C120.342 30.3279 120.122 29.4361 119.677 28.6923C119.157 27.7923 118.414 27.3434 117.451 27.3434C116.454 27.3434 115.697 27.7934 115.178 28.6923C114.732 29.4373 114.512 30.3432 114.512 31.4148C114.512 32.4547 114.732 33.3465 115.178 34.0891C115.714 34.9891 116.463 35.438 117.429 35.438C118.376 35.438 119.119 34.9797 119.655 34.0656C120.112 33.3077 120.342 32.4065 120.342 31.3678Z" fill="white"/>
<path d="M130.974 27.945C130.729 27.8992 130.467 27.8757 130.193 27.8757C129.32 27.8757 128.646 28.2082 128.171 28.8745C127.758 29.462 127.551 30.2046 127.551 31.1011V37.0172H125.073L125.096 29.2928C125.096 27.9932 125.065 26.81 125.003 25.7431H127.163L127.254 27.9004H127.322C127.584 27.159 127.997 26.5621 128.562 26.1144C129.114 25.7114 129.711 25.5104 130.354 25.5104C130.583 25.5104 130.79 25.5269 130.974 25.5563V27.945Z" fill="white"/>
<path d="M142.063 30.8461C142.063 31.2949 142.034 31.6733 141.972 31.9823H134.534C134.563 33.0962 134.922 33.9481 135.613 34.5356C136.24 35.0608 137.051 35.324 138.046 35.324C139.147 35.324 140.152 35.1466 141.056 34.7906L141.444 36.5296C140.388 36.9949 139.142 37.2263 137.703 37.2263C135.972 37.2263 134.614 36.7117 133.626 35.6836C132.639 34.6554 132.145 33.2748 132.145 31.5429C132.145 29.8426 132.605 28.4268 133.524 27.2976C134.487 26.092 135.789 25.4893 137.426 25.4893C139.035 25.4893 140.252 26.092 141.079 27.2976C141.734 28.2552 142.063 29.4396 142.063 30.8461ZM139.699 30.1963C139.715 29.4537 139.553 28.8122 139.217 28.2705C138.788 27.5737 138.129 27.2259 137.241 27.2259C136.431 27.2259 135.771 27.5655 135.268 28.247C134.855 28.7887 134.609 29.4384 134.534 30.1951H139.699V30.1963Z" fill="white"/>
</svg>
