<svg width="1329" height="765" viewBox="0 0 1329 765" fill="none" xmlns="http://www.w3.org/2000/svg">
<g clip-path="url(#clip0_8_60)">
<path d="M542.51 88.1647C549.436 95.0905 549.39 106.328 542.51 113.208C535.63 120.088 524.439 119.996 517.559 113.116C510.633 106.19 510.587 94.9529 517.421 88.1188C524.347 81.193 535.584 81.2388 542.51 88.1647ZM522.054 108.621C526.457 113.024 533.566 113.07 537.923 108.713C542.281 104.356 542.327 97.1545 537.923 92.7513C533.52 88.3482 526.319 88.394 521.962 92.7514C517.605 97.1087 517.65 104.218 522.054 108.621Z" fill="#303030" fill-opacity="0.05"/>
<path d="M438.026 -16.3195C444.952 -9.3936 444.906 1.84371 438.026 8.7237C431.146 15.6037 419.955 15.512 413.075 8.63198C406.195 1.75199 406.149 -9.48536 412.983 -16.3195C419.909 -23.2453 431.1 -23.2453 438.026 -16.3195ZM417.57 4.13705C422.019 8.58611 429.082 8.5861 433.439 4.22878C437.797 -0.12855 437.843 -7.3296 433.439 -11.7328C429.036 -16.136 421.835 -16.0902 417.478 -11.7328C413.12 -7.3755 413.12 -0.312007 417.57 4.13705Z" fill="#303030" fill-opacity="0.05"/>
<path d="M478.71 24.3642C485.636 31.2901 485.59 42.5274 478.71 49.4074C471.83 56.2874 460.638 56.1957 453.758 49.3157C446.832 42.3898 446.832 31.1983 453.667 24.3642C460.547 17.3925 471.784 17.4384 478.71 24.3642ZM458.253 44.8207C462.656 49.2239 469.766 49.2698 474.123 44.9125C478.48 40.5551 478.526 33.3541 474.123 28.9509C469.72 24.5477 462.519 24.5935 458.161 28.9509C453.804 33.3082 453.85 40.4175 458.253 44.8207Z" fill="#303030" fill-opacity="0.05"/>
<path d="M904.077 102.98C911.002 109.905 910.957 121.143 904.077 128.023C897.197 134.903 886.051 134.857 879.125 127.931C872.245 121.051 872.199 109.814 879.033 102.98C885.868 96.0537 897.151 96.0537 904.077 102.98ZM883.62 123.436C888.069 127.885 895.133 127.885 899.49 123.528C903.847 119.17 903.939 112.015 899.49 107.566C895.087 103.163 887.886 103.209 883.528 107.566C879.171 111.924 879.217 119.033 883.62 123.436Z" fill="#303030" fill-opacity="0.05"/>
<path d="M775.054 55.5076C781.934 62.3876 781.934 73.6708 775.054 80.5508C768.174 87.4308 756.982 87.3391 750.102 80.4591C743.222 73.5791 743.177 62.3418 750.011 55.5077C756.845 48.5818 768.128 48.5818 775.054 55.5076ZM754.597 75.9642C759.046 80.4132 766.11 80.4132 770.467 76.0559C774.825 71.6986 774.916 64.5434 770.467 60.0943C766.018 55.6453 758.863 55.737 754.506 60.0943C750.148 64.4517 750.148 71.5151 754.597 75.9642Z" fill="#303030" fill-opacity="0.05"/>
<path d="M842.569 123.023C849.449 129.903 849.495 141.232 842.615 148.112C835.735 154.992 824.544 154.901 817.618 147.975C810.692 141.049 810.692 129.857 817.526 123.023C824.406 116.143 835.689 116.143 842.569 123.023ZM822.113 143.48C826.562 147.929 833.625 147.929 837.983 143.571C842.34 139.214 842.432 132.059 837.983 127.61C833.534 123.161 826.379 123.253 822.021 127.61C817.71 132.013 817.71 139.077 822.113 143.48Z" fill="#303030" fill-opacity="0.05"/>
<path d="M1206.38 323.736C1213.26 330.616 1213.31 341.853 1206.48 348.687C1199.55 355.613 1188.31 355.567 1181.43 348.687C1174.55 341.807 1174.51 330.478 1181.39 323.598C1188.22 316.764 1199.46 316.81 1206.38 323.736ZM1185.93 344.192C1190.38 348.641 1197.53 348.549 1201.89 344.192C1206.25 339.835 1206.25 332.771 1201.8 328.322C1197.35 323.873 1190.28 323.873 1185.93 328.231C1181.57 332.588 1181.48 339.743 1185.93 344.192Z" fill="#303030" fill-opacity="0.05"/>
<path d="M1080.8 279.704C1087.73 286.63 1087.73 297.821 1080.89 304.655C1073.97 311.581 1062.78 311.581 1055.85 304.655C1048.97 297.775 1049.02 286.538 1055.9 279.658C1062.73 272.824 1073.92 272.824 1080.8 279.704ZM1060.34 300.16C1064.79 304.609 1071.99 304.563 1076.35 300.206C1080.71 295.849 1080.66 288.739 1076.21 284.29C1071.81 279.887 1064.7 279.841 1060.34 284.199C1055.99 288.556 1055.94 295.757 1060.34 300.16Z" fill="#303030" fill-opacity="0.05"/>
<path d="M1239.36 438.264C1246.29 445.19 1246.29 456.382 1239.45 463.216C1232.53 470.142 1221.34 470.142 1214.41 463.216C1207.53 456.336 1207.48 445.007 1214.36 438.127C1221.24 431.339 1232.48 431.384 1239.36 438.264ZM1218.91 458.721C1223.35 463.17 1230.56 463.124 1234.91 458.767C1239.27 454.41 1239.22 447.3 1234.77 442.851C1230.37 438.448 1223.26 438.402 1218.91 442.759C1214.55 447.117 1214.5 454.318 1218.91 458.721Z" fill="#303030" fill-opacity="0.05"/>
<path d="M660.387 103.943C667.313 110.869 667.267 122.106 660.387 128.986C653.507 135.866 642.224 135.958 635.298 129.032C628.372 122.106 628.418 110.869 635.298 103.989C642.178 97.1086 653.461 97.0169 660.387 103.943ZM639.839 124.491C644.242 128.894 651.397 128.894 655.801 124.491C660.158 120.134 660.204 112.933 655.801 108.529C651.397 104.126 644.196 104.172 639.839 108.529C635.436 112.933 635.436 120.088 639.839 124.491Z" fill="#303030" fill-opacity="0.05"/>
<path d="M868.438 209.986C875.318 216.866 875.318 228.15 868.438 235.03C861.512 241.955 850.275 241.909 843.395 235.029C836.515 228.15 836.515 216.866 843.395 209.986C850.275 203.015 861.512 203.06 868.438 209.986ZM847.936 230.489C852.385 234.938 859.494 234.892 863.897 230.489C868.255 226.131 868.346 218.976 863.897 214.527C859.448 210.078 852.293 210.17 847.936 214.527C843.533 218.93 843.487 226.04 847.936 230.489Z" fill="#303030" fill-opacity="0.05"/>
<path d="M852.844 296.399C859.724 303.279 859.724 314.562 852.844 321.442C845.964 328.322 834.772 328.23 827.892 321.35C820.966 314.425 820.966 303.233 827.8 296.399C834.68 289.519 845.918 289.473 852.844 296.399ZM832.387 316.856C836.79 321.259 843.9 321.305 848.257 316.947C852.614 312.59 852.66 305.389 848.257 300.986C843.808 296.537 836.653 296.628 832.295 300.986C827.938 305.343 827.984 312.452 832.387 316.856Z" fill="#303030" fill-opacity="0.05"/>
<path d="M1051.4 413.405C1058.28 420.285 1058.33 431.614 1051.45 438.494C1044.61 445.328 1033.37 445.282 1026.45 438.356C1019.52 431.43 1019.52 420.239 1026.36 413.405C1033.19 406.479 1044.43 406.433 1051.4 413.405ZM1030.94 433.861C1035.35 438.264 1042.46 438.31 1046.81 433.953C1051.22 429.55 1051.22 422.395 1046.81 417.991C1042.36 413.542 1035.21 413.634 1030.85 417.991C1026.49 422.349 1026.49 429.412 1030.94 433.861Z" fill="#303030" fill-opacity="0.05"/>
<path d="M1075.57 519.127C1082.45 526.007 1082.45 537.29 1075.57 544.17C1068.69 551.05 1057.5 550.959 1050.62 544.079C1043.74 537.199 1043.65 525.916 1050.48 519.081C1057.36 512.201 1068.65 512.201 1075.57 519.127ZM1055.12 539.584C1059.56 544.033 1066.63 544.033 1070.99 539.675C1075.34 535.318 1075.43 528.163 1070.99 523.714C1066.54 519.265 1059.38 519.357 1055.02 523.714C1050.67 528.071 1050.67 535.135 1055.12 539.584Z" fill="#303030" fill-opacity="0.05"/>
<path d="M1302.75 583.203C1309.63 590.083 1309.63 601.366 1302.75 608.246C1295.87 615.126 1284.68 615.034 1277.8 608.154C1270.92 601.274 1270.83 589.991 1277.66 583.157C1284.54 576.277 1295.82 576.277 1302.75 583.203ZM1282.29 603.659C1286.74 608.108 1293.81 608.108 1298.16 603.751C1302.61 599.302 1302.66 592.284 1298.16 587.79C1293.76 583.386 1286.56 583.432 1282.2 587.79C1277.84 592.147 1277.89 599.256 1282.29 603.659Z" fill="#303030" fill-opacity="0.05"/>
<path d="M797.116 322.222C804.042 329.148 804.041 340.431 797.161 347.311C790.236 354.237 779.044 354.237 772.073 347.265C765.193 340.385 765.192 329.102 772.072 322.222C778.952 315.342 790.236 315.342 797.116 322.222ZM776.567 342.77C781.017 347.219 788.126 347.173 792.529 342.77C796.886 338.413 796.978 331.258 792.529 326.809C788.126 322.405 780.925 322.451 776.567 326.809C772.164 331.212 772.164 338.367 776.567 342.77Z" fill="#303030" fill-opacity="0.05"/>
<path d="M1135.24 660.351C1142.17 667.276 1142.12 678.514 1135.24 685.394C1128.32 692.319 1117.13 692.32 1110.2 685.394C1103.32 678.514 1103.32 667.23 1110.2 660.35C1117.08 653.47 1128.36 653.471 1135.24 660.351ZM1114.7 680.899C1119.15 685.348 1126.3 685.256 1130.66 680.899C1135.01 676.541 1135.11 669.386 1130.66 664.937C1126.25 660.534 1119.05 660.58 1114.7 664.937C1110.34 669.295 1110.29 676.496 1114.7 680.899Z" fill="#303030" fill-opacity="0.05"/>
<path d="M795.327 238.882C802.207 245.762 802.207 257.045 795.327 263.925C788.447 270.805 777.255 270.714 770.375 263.834C763.495 256.954 763.404 245.671 770.238 238.836C777.164 232.002 788.447 232.002 795.327 238.882ZM774.87 259.339C779.319 263.788 786.383 263.788 790.74 259.431C795.098 255.073 795.189 247.918 790.74 243.469C786.291 239.02 779.136 239.112 774.779 243.469C770.467 247.872 770.467 254.936 774.87 259.339Z" fill="#303030" fill-opacity="0.05"/>
<path d="M696.622 58.6266C703.548 65.5525 703.502 76.7898 696.622 83.6698C689.788 90.5039 678.551 90.458 671.671 83.578C664.791 76.6981 664.745 65.4608 671.579 58.6266C678.413 51.7008 689.696 51.7008 696.622 58.6266ZM676.165 79.0831C680.569 83.4863 687.678 83.5322 692.035 79.1748C696.438 74.7716 696.438 67.6165 692.035 63.2133C687.632 58.8101 680.431 58.856 676.074 63.2133C671.716 67.5706 671.762 74.6799 676.165 79.0831Z" fill="#303030" fill-opacity="0.05"/>
<path d="M201.492 -579.24L507.835 -272.897L466.968 -232.03L634.014 -64.9839L593.239 -24.2085L667.451 50.0037L622.135 95.3199L580.992 54.1775L542.464 92.7054L537.924 88.1647L580.992 45.0959L622.135 86.2383L658.369 50.0037L584.111 -24.2544L624.887 -65.0298L457.886 -232.03L498.753 -272.897L196.951 -574.699L201.492 -579.24Z" fill="#303030" fill-opacity="0.05"/>
<path d="M536.502 -244.231L718.225 -62.5071L677.358 -21.64L754.506 55.5076L749.965 60.0484L668.276 -21.64L709.144 -62.5071L531.961 -239.69L536.502 -244.231Z" fill="#303030" fill-opacity="0.05"/>
<path d="M843.349 230.489L847.936 235.075L764.138 318.874L686.761 241.497L727.536 200.721L655.571 128.757L660.112 124.216L736.618 200.721L695.842 241.497L764.092 309.746L843.349 230.489Z" fill="#303030" fill-opacity="0.05"/>
<path d="M696.622 79.1748L796.978 179.531L756.203 220.306L774.824 238.928L770.284 243.469L747.075 220.26L787.851 179.485L692.081 83.7156L696.622 79.1748Z" fill="#303030" fill-opacity="0.05"/>
<path d="M1001.86 139.581L1185.93 323.644L1181.39 328.185L1001.91 148.709L965.675 184.943L1017.5 236.772L972.097 282.18L838.029 148.112L842.569 143.572L972.097 273.099L1008.42 236.772L956.548 184.897L1001.86 139.581Z" fill="#303030" fill-opacity="0.05"/>
<path d="M1080.94 300.206L1133.64 352.907L1092.77 393.774L1128.23 429.229L1169 388.453L1218.81 438.264L1214.27 442.805L1168.96 397.489L1128.18 438.264L1083.64 393.728L1124.51 352.861L1076.4 304.747L1080.94 300.206Z" fill="#303030" fill-opacity="0.05"/>
<path d="M945.953 410.057L1035.26 499.359L994.48 540.134L1114.74 660.396L1110.2 664.937L985.398 540.134L1026.17 499.359L945.953 419.138L905.177 459.914L793.217 347.953L797.758 343.412L905.177 450.832L945.953 410.057Z" fill="#303030" fill-opacity="0.05"/>
<path d="M960.814 343.366L1031.63 414.185L1027.09 418.725L960.814 352.448L920.038 393.223L848.303 321.488L852.844 316.947L920.038 384.142L960.814 343.366Z" fill="#303030" fill-opacity="0.05"/>
<path d="M1187.62 488.626L1279.49 580.497L1274.95 585.038L1187.67 497.753L1151.44 533.988L1184.28 566.829L1138.96 612.145L1070.99 544.17L1075.53 539.63L1138.96 603.063L1175.19 566.829L1142.31 533.942L1187.62 488.626Z" fill="#303030" fill-opacity="0.05"/>
<path d="M655.617 -369.768L744.874 -280.511L704.098 -239.736L787.851 -155.983L747.075 -115.208L841.285 -20.9978L800.418 19.8693L883.345 102.796L878.804 107.337L791.336 19.8693L832.204 -20.9978L737.994 -115.208L778.769 -155.983L694.971 -239.782L735.746 -280.557L655.617 -360.686L614.842 -319.91L512.605 -422.147L517.146 -426.688L614.842 -328.992L655.617 -369.768Z" fill="#303030" fill-opacity="0.05"/>
<path d="M555.72 -57.1407L474.169 24.4101L478.71 28.9509L560.261 -52.5999L555.72 -57.1407Z" fill="#303030" fill-opacity="0.05"/>
<path d="M1049.02 23.6303L1180.79 155.405L1140.01 196.18L1267.43 323.598L1226.66 364.373L1386.13 523.852L1381.59 528.392L1217.57 364.373L1258.35 323.598L1130.89 196.135L1171.66 155.359L1049.06 32.7578L1008.29 73.5332L903.526 -31.2261L908.067 -35.7669L1008.24 64.4058L1049.02 23.6303Z" fill="#303030" fill-opacity="0.05"/>
<path d="M1040.16 96.3289L1035.62 100.87L1099.93 165.175L1104.47 160.634L1040.16 96.3289Z" fill="#303030" fill-opacity="0.05"/>
<path d="M1288.03 348.687C1294.95 355.613 1294.86 366.804 1287.98 373.684C1281.05 380.61 1269.91 380.656 1262.98 373.73C1256.1 366.85 1256.06 355.521 1262.94 348.641C1269.86 341.715 1281.1 341.761 1288.03 348.687ZM1267.52 369.189C1272.02 373.684 1278.99 373.593 1283.44 369.144C1287.84 364.74 1287.89 357.631 1283.49 353.228C1279.08 348.825 1271.93 348.825 1267.52 353.228C1263.12 357.631 1263.12 364.786 1267.52 369.189Z" fill="#303030" fill-opacity="0.05"/>
<path d="M1365.04 267.09L1283.48 348.641L1288.07 353.228L1369.62 271.677L1365.04 267.09Z" fill="#303030" fill-opacity="0.05"/>
<path d="M1332.47 316.076C1339.35 309.196 1350.5 309.15 1357.38 316.03C1364.26 322.91 1364.26 334.101 1357.38 340.981C1350.45 347.907 1339.26 347.907 1332.38 341.027C1325.5 334.147 1325.54 323.002 1332.47 316.076ZM1352.88 336.486C1357.33 332.037 1357.28 325.02 1352.84 320.571C1348.48 316.213 1341.32 316.213 1336.97 320.571C1332.52 325.02 1332.56 332.129 1336.92 336.486C1341.32 340.89 1348.43 340.935 1352.88 336.486Z" fill="#303030" fill-opacity="0.05"/>
<path d="M1325.54 34.9595C1332.47 41.8854 1332.42 53.1226 1325.54 60.0026C1318.71 66.8368 1307.52 66.8368 1300.59 59.9109C1293.71 53.031 1293.71 41.8394 1300.55 35.0053C1307.43 28.1253 1318.66 28.0795 1325.54 34.9595ZM1305.13 55.3702C1309.58 59.8192 1316.69 59.865 1321.05 55.5077C1325.45 51.1045 1325.45 43.9494 1321 39.5003C1316.6 35.0971 1309.4 35.143 1305.04 39.5003C1300.64 43.9035 1300.73 50.967 1305.13 55.3702Z" fill="#303030" fill-opacity="0.05"/>
<path d="M1168.96 -182.815L1303.02 -48.7471L1257.62 -3.33916L1205.79 -55.1684L1169.55 -18.9338L1349.03 160.542L1344.49 165.083L1160.42 -18.9797L1205.74 -64.2959L1257.62 -12.4207L1293.94 -48.747L1164.42 -178.274L1168.96 -182.815Z" fill="#303030" fill-opacity="0.05"/>
<path d="M1414.57 62.8005L1459.11 107.337L1418.33 148.112L1463.65 193.429L1459.11 197.969L1409.3 148.158L1450.07 107.383L1414.62 71.9279L1373.75 112.795L1321.05 60.0944L1325.59 55.5536L1373.7 103.668L1414.57 62.8005Z" fill="#303030" fill-opacity="0.05"/>
<path d="M1368.8 -227.627L1480.76 -115.666L1439.98 -74.891L1520.2 5.32975L1560.98 -35.4457L1685.78 89.3573L1681.24 93.8981L1560.98 -26.3641L1520.2 14.4113L1430.9 -74.8909L1471.68 -115.666L1364.26 -223.086L1368.8 -227.627Z" fill="#303030" fill-opacity="0.05"/>
<path d="M1342.33 -172.541L1414.07 -100.806L1373.34 -60.0761L1439.62 6.20117L1435.03 10.7878L1364.21 -60.0302L1404.99 -100.806L1337.79 -168L1342.33 -172.541Z" fill="#303030" fill-opacity="0.05"/>
<path d="M1384.71 196.226L1548.55 360.062L1544.01 364.603L1384.71 205.308L1343.94 246.083L1216.75 118.895L1175.97 159.671L1044.34 28.0336L1085.11 -12.7418L985.077 -112.777L989.618 -117.318L1094.19 -12.7418L1053.42 28.0336L1175.88 150.497L1216.66 109.722L1343.94 237.002L1384.71 196.226Z" fill="#303030" fill-opacity="0.05"/>
<path d="M1121.76 14.7323L1117.17 19.3189L1181.48 83.6239L1186.06 79.0373L1121.76 14.7323Z" fill="#303030" fill-opacity="0.05"/>
<path d="M1127.22 162.927C1134.1 169.807 1134.1 180.999 1127.26 187.833C1120.38 194.713 1109.15 194.759 1102.27 187.879C1095.34 180.953 1095.39 169.716 1102.27 162.836C1109.1 156.001 1120.29 156.001 1127.22 162.927ZM1106.76 183.384C1111.21 187.833 1118.23 187.787 1122.68 183.338C1127.08 178.935 1126.99 171.871 1122.63 167.514C1118.18 163.065 1111.07 163.019 1106.72 167.376C1102.4 171.779 1102.36 178.981 1106.76 183.384Z" fill="#303030" fill-opacity="0.05"/>
<path d="M1208.77 81.3765C1215.65 88.2565 1215.65 99.4479 1208.81 106.282C1201.89 113.208 1190.7 113.208 1183.82 106.328C1176.89 99.4021 1176.94 88.1647 1183.82 81.2848C1190.65 74.4506 1201.84 74.4507 1208.77 81.3765ZM1188.31 101.833C1192.76 106.282 1199.78 106.236 1204.23 101.787C1208.58 97.4298 1208.54 90.3205 1204.18 85.9632C1199.73 81.5141 1192.62 81.4682 1188.27 85.8255C1183.95 90.2287 1183.91 97.4298 1188.31 101.833Z" fill="#303030" fill-opacity="0.05"/>
<path d="M1119.51 -7.88C1126.39 -1.00001 1126.35 10.1456 1119.51 16.9797C1112.59 23.9055 1101.44 23.9514 1094.56 17.0714C1087.63 10.1456 1087.68 -1.09169 1094.56 -7.97168C1101.39 -14.8058 1112.59 -14.8059 1119.51 -7.88ZM1099.06 12.5765C1103.5 17.0255 1110.52 16.9797 1114.97 12.5306C1119.33 8.17332 1119.28 1.06396 1114.93 -3.29337C1110.48 -7.74243 1103.37 -7.78824 1099.01 -3.43091C1094.65 0.926417 1094.65 8.1733 1099.06 12.5765Z" fill="#303030" fill-opacity="0.05"/>
<path d="M1037.96 73.6708C1044.84 80.5508 1044.8 91.6963 1037.96 98.5305C1031.08 105.41 1019.89 105.502 1013.01 98.6222C1006.08 91.6963 1006.13 80.4591 1013.01 73.5791C1019.84 66.745 1031.04 66.7449 1037.96 73.6708ZM1017.5 94.1273C1021.95 98.5763 1028.97 98.5305 1033.42 94.0814C1037.82 89.6782 1037.73 82.6147 1033.37 78.2574C1028.93 73.8084 1021.82 73.7625 1017.46 78.1199C1013.1 82.4772 1013.1 89.7241 1017.5 94.1273Z" fill="#303030" fill-opacity="0.05"/>
</g>
<defs>
<clipPath id="clip0_8_60">
<rect width="1621.63" height="1621.63" fill="white" transform="translate(0 -382.335) rotate(-45)"/>
</clipPath>
</defs>
</svg>
