<svg width="192" height="192" viewBox="0 0 192 192" fill="none" xmlns="http://www.w3.org/2000/svg">
<path d="M24 96.0001H31.9987C36.2425 96.0001 40.3125 97.6859 43.3133 100.687C46.3142 103.688 48 107.758 48 112.001V120C47.9671 122.122 48.3567 124.229 49.146 126.199C49.9352 128.169 51.1085 129.962 52.5974 131.475C54.0864 132.987 55.8612 134.188 57.8187 135.007C59.7762 135.827 61.8772 136.249 63.9994 136.249C66.1215 136.249 68.2225 135.827 70.18 135.007C72.1375 134.188 73.9123 132.987 75.4013 131.475C76.8902 129.962 78.0635 128.169 78.8528 126.199C79.642 124.229 80.0316 122.122 79.9987 120V72.0001C79.9987 67.7563 81.6846 63.6863 84.6854 60.6854C87.6862 57.6846 91.7562 55.9988 96 55.9988C100.244 55.9988 104.314 57.6846 107.315 60.6854C110.315 63.6863 112.001 67.7563 112.001 72.0001V120C111.968 122.122 112.358 124.229 113.147 126.199C113.937 128.169 115.11 129.962 116.599 131.475C118.088 132.987 119.863 134.188 121.82 135.007C123.777 135.827 125.878 136.249 128.001 136.249C130.123 136.249 132.224 135.827 134.181 135.007C136.139 134.188 137.914 132.987 139.403 131.475C140.891 129.962 142.065 128.169 142.854 126.199C143.643 124.229 144.033 122.122 144 120V112.001C144 109.9 144.414 107.819 145.218 105.878C146.022 103.937 147.201 102.173 148.687 100.687C150.173 99.2009 151.936 98.0222 153.878 97.2181C155.819 96.4139 157.9 96.0001 160.001 96.0001H168" stroke="#303030" stroke-opacity="0.7" stroke-width="11" stroke-linecap="round" stroke-linejoin="round"/>
</svg>
