<svg width="109" height="109" viewBox="0 0 109 109" fill="none" xmlns="http://www.w3.org/2000/svg">
<circle cx="54.5" cy="54.5" r="54.5" fill="#1FA84F"/>
<path fill-rule="evenodd" clip-rule="evenodd" d="M77.9185 57.9063L44.9734 75.7155C44.4984 75.9726 43.9655 76.1038 43.4255 76.0964C42.8854 76.089 42.3562 75.9433 41.8885 75.6732C41.4208 75.4032 41.03 75.0178 40.7536 74.5538C40.4772 74.0898 40.3242 73.5627 40.3094 73.0228L39.2601 35.5869C39.2444 35.0248 39.3789 34.4686 39.6499 33.9759C39.9208 33.4831 40.3183 33.0715 40.8014 32.7836C41.2845 32.4958 41.8356 32.342 42.398 32.3382C42.9603 32.3344 43.5135 32.4807 44.0004 32.762L77.9948 52.3887C78.4819 52.6697 78.8852 53.0756 79.1631 53.5645C79.4409 54.0534 79.5833 54.6076 79.5755 55.1699C79.5678 55.7322 79.4101 56.2822 79.1188 56.7632C78.8275 57.2443 78.4132 57.6389 77.9185 57.9063Z" fill="white"/>
</svg>
