<svg width="142" height="142" viewBox="0 0 142 142" fill="none" xmlns="http://www.w3.org/2000/svg">
<path d="M59.1667 59.1667C72.2374 59.1667 82.8333 48.5708 82.8333 35.5C82.8333 22.4293 72.2374 11.8334 59.1667 11.8334C46.0959 11.8334 35.5 22.4293 35.5 35.5C35.5 48.5708 46.0959 59.1667 59.1667 59.1667Z" stroke="#303030" stroke-opacity="0.7" stroke-width="9"/>
<path d="M106.5 103.542C106.5 118.245 106.5 130.167 59.1667 130.167C11.8334 130.167 11.8334 118.245 11.8334 103.542C11.8334 88.8388 33.0269 76.9167 59.1667 76.9167C85.3065 76.9167 106.5 88.8388 106.5 103.542Z" stroke="#303030" stroke-opacity="0.7" stroke-width="9"/>
<path d="M112.417 11.8334C112.417 11.8334 124.25 18.9334 124.25 35.5C124.25 52.0667 112.417 59.1667 112.417 59.1667M100.583 23.6667C100.583 23.6667 106.5 27.2167 106.5 35.5C106.5 43.7834 100.583 47.3334 100.583 47.3334" stroke="#303030" stroke-opacity="0.7" stroke-width="9" stroke-linecap="round"/>
</svg>
